<svg xmlns="http://www.w3.org/2000/svg" viewBox="0 0 64 64" role="img" aria-label="Phoenix"><rect width="64" height="64" rx="12" fill="#1F1A17"/><g transform="translate(6 4) scale(0.58)"><g transform="translate(2 -10)"><defs><linearGradient id="flame" gradientUnits="userSpaceOnUse" x1="30" y1="11" x2="30" y2="80"><stop offset="0" stop-color="#F6762F"/><stop offset="0.5" stop-color="#EA5F28"/><stop offset="0.78" stop-color="#C4502D"/><stop offset="1" stop-color="#8E3A28"/></linearGradient><linearGradient id="wing" gradientUnits="userSpaceOnUse" x1="20" y1="75" x2="20" y2="105"><stop offset="0" stop-color="#A9532F"/><stop offset="0.55" stop-color="#7E3A2B"/><stop offset="1" stop-color="#4A2A22"/></linearGradient></defs><path fill="url(#flame)" fill-rule="evenodd" d="M 9 74 C 6 68 5 62 6 55 C 7 47 10 39 14 30 C 15 38 18 45 21 51 C 19 42 25 24 34 11 C 38 20 43 34 43 53 C 44 48 47 44 51 39 C 52 48 54 55 57 60 C 58 61 59 63 60 65 C 59 70 58 76 56 80 C 55 75 52 70 48 66 C 44 64 40 65 35 67 C 30 68 25 69 20 70 C 16 71 12 72 9 74 Z M 29 64.5 C 31 62.5 34 62.5 36 64 C 34 65.5 31 65.5 29 64.5 Z"/><path fill="url(#flame)" d="M 21 12 C 25 15 27 20 25 26 C 21 23 20 17 21 12 Z M 44 30 C 48 32 50 36 48 40 C 45 37 44 34 44 30 Z M 0 55 C 3 58 4 63 2 68 C -1 65 -2 60 0 55 Z"/><path fill="url(#wing)" d="M 5 75 C 12 76 20 79 30 83 C 36 86 40 90 41 94 C 37 93 33 92 30 91 C 32 95 33 98 32 102 C 28 99 25 96 22 94 C 22 98 21 102 18 105 C 13 101 9 94 7 87 C 6 83 5 79 5 75 Z"/><path fill="none" stroke="#F1C4A3" stroke-width="1.2" stroke-linecap="round" d="M 20 77 C 24 76 28 76 31 78"/><path fill="none" stroke="#D9A07C" stroke-width="1" stroke-linecap="round" d="M 9 80 C 14 82 19 85 23 89 M 27 90 C 30 92 32 95 33 98"/><circle cx="36.5" cy="72.5" r="1.3" fill="#C46A3A"/></g></g></svg>
